<svg width="24" height="24" viewBox="0 0 24 24" fill="none" xmlns="http://www.w3.org/2000/svg">
<path d="M10.9643 21.5419L10.9682 21.5443C11.2791 21.7335 11.6361 21.8335 12 21.8335C12.3639 21.8335 12.7209 21.7335 13.0318 21.5443L13.0357 21.5419C17.4556 18.8247 19.9586 16.0792 21.3522 13.6614C22.7492 11.2379 23 9.19839 23 7.95C23 4.65418 20.3037 2 17 2C15.2713 2 13.7957 2.92675 12.8265 3.73008C12.5092 3.99305 12.2314 4.2551 12 4.49019C11.7686 4.2551 11.4908 3.99305 11.1735 3.73008C10.2043 2.92675 8.72865 2 7 2C3.6963 2 1 4.65418 1 7.95C1 9.19839 1.2508 11.2379 2.64775 13.6614C4.04141 16.0792 6.54438 18.8247 10.9643 21.5419Z" fill="black" stroke="black" stroke-width="2" stroke-linecap="round" stroke-linejoin="round"/>
</svg>
